<svg width="120" height="47" viewBox="0 0 120 47" fill="none" xmlns="http://www.w3.org/2000/svg">
<path d="M10.5609 10.3447C12.4723 10.4899 14.0086 11.1312 15.17 12.2685C16.3555 13.3816 16.9483 14.773 16.9483 16.4427C16.9483 17.7252 16.6337 18.8867 16.0047 19.9272C15.3756 20.9677 14.5046 21.7905 13.3917 22.3954C12.3029 22.9762 11.0811 23.2665 9.72621 23.2665C8.92779 23.2665 8.05678 23.2302 7.1132 23.1577C6.77447 23.1335 6.37526 23.1093 5.91557 23.0851C5.45587 23.0609 4.94778 23.0488 4.39131 23.0488L1.92347 23.0851C1.48796 23.1093 0.871003 23.1214 0.0725836 23.1214C0.0241945 23.1214 0 23.0488 0 22.9036C0 22.7584 0.0241945 22.6858 0.0725836 22.6858C0.991976 22.6858 1.66942 22.6253 2.10493 22.5043C2.54043 22.3591 2.84286 22.1171 3.01222 21.7784C3.18158 21.4396 3.26626 20.9072 3.26626 20.1813V3.37565C3.26626 2.6497 3.18158 2.11734 3.01222 1.77857C2.86705 1.43979 2.57672 1.20991 2.14122 1.08892C1.70572 0.943728 1.04037 0.871134 0.145167 0.871134C0.0725836 0.871134 0.0362918 0.79854 0.0362918 0.653352C0.0362918 0.508163 0.0725836 0.435568 0.145167 0.435568L1.92347 0.471865C2.93964 0.520261 3.76225 0.544459 4.39131 0.544459C4.82681 0.544459 5.22602 0.53236 5.58894 0.508162C5.97605 0.483964 6.30268 0.459766 6.56882 0.435568C7.31885 0.362973 8.02049 0.326676 8.67374 0.326676C10.7061 0.326676 12.2303 0.774342 13.2465 1.66967C14.2627 2.54081 14.7708 3.69022 14.7708 5.11791C14.7708 6.27943 14.3958 7.31995 13.6457 8.23948C12.8957 9.13481 11.8674 9.83656 10.5609 10.3447ZM7.87532 0.871134C7.24627 0.871134 6.77447 0.919531 6.45994 1.01632C6.16961 1.11312 5.95186 1.343 5.80669 1.70597C5.66152 2.06894 5.58894 2.6497 5.58894 3.44824V10.3447L7.22207 10.381C8.98827 10.381 10.2948 9.93335 11.1416 9.03802C11.9884 8.11849 12.4118 6.90858 12.4118 5.40829C12.4118 4.05319 12.0368 2.96428 11.2868 2.14154C10.5609 1.2946 9.42377 0.871134 7.87532 0.871134ZM9.18183 22.6132C10.948 22.6132 12.2545 22.1655 13.1013 21.2702C13.9723 20.3507 14.4078 19.044 14.4078 17.3501C14.4078 15.511 13.8635 14.0228 12.7747 12.8855C11.7102 11.7482 10.2343 11.1675 8.34712 11.1433C7.57289 11.1191 6.6535 11.1433 5.58894 11.2159V20.1813C5.58894 20.8104 5.67362 21.2944 5.84298 21.6332C6.03654 21.9719 6.38736 22.226 6.89544 22.3954C7.42772 22.5406 8.18985 22.6132 9.18183 22.6132Z" fill="#2A2A2A"/>
<path d="M35.9876 17.7131C35.9876 17.6647 36.036 17.6405 36.1328 17.6405C36.2053 17.6405 36.2658 17.6526 36.3142 17.6768C36.3868 17.701 36.4231 17.7373 36.4231 17.7857C36.2053 19.3101 36.0965 20.9072 36.0965 22.5769C36.0965 22.7705 36.0481 22.9157 35.9513 23.0125C35.8787 23.0851 35.7335 23.1214 35.5158 23.1214H20.3095C20.2611 23.1214 20.2369 23.0488 20.2369 22.9036C20.2369 22.7584 20.2611 22.6858 20.3095 22.6858C21.2289 22.6858 21.8943 22.6253 22.3056 22.5043C22.7411 22.3833 23.0314 22.1534 23.1766 21.8147C23.3459 21.4517 23.4306 20.9072 23.4306 20.1813V3.37565C23.4306 2.6497 23.3459 2.11734 23.1766 1.77857C23.0314 1.43979 22.7411 1.20991 22.3056 1.08892C21.8943 0.943728 21.2289 0.871134 20.3095 0.871134C20.2611 0.871134 20.2369 0.79854 20.2369 0.653352C20.2369 0.508163 20.2611 0.435568 20.3095 0.435568H34.8988C35.1166 0.435568 35.2255 0.54446 35.2255 0.762242L35.298 5.22681C35.298 5.2994 35.2376 5.3478 35.1166 5.37199C34.9956 5.37199 34.923 5.3357 34.8988 5.2631C34.8262 3.9806 34.4391 2.98848 33.7375 2.28673C33.0359 1.56078 32.1044 1.19781 30.943 1.19781H28.7292C27.8824 1.19781 27.2534 1.2704 26.842 1.41559C26.4549 1.53658 26.1767 1.76647 26.0073 2.10524C25.8622 2.41982 25.7896 2.90378 25.7896 3.55713V10.9255H30.2172C31.3785 10.9255 32.2011 10.7319 32.685 10.3447C33.1931 9.95755 33.4472 9.3042 33.4472 8.38467C33.4472 8.33627 33.5197 8.31207 33.6649 8.31207C33.8101 8.31207 33.8827 8.33627 33.8827 8.38467L33.8464 11.3247C33.8464 12.0265 33.8585 12.5589 33.8827 12.9218L33.9189 14.6641C33.9189 14.7125 33.8464 14.7367 33.7012 14.7367C33.556 14.7367 33.4834 14.7125 33.4834 14.6641C33.4834 13.5994 33.2173 12.8371 32.685 12.3774C32.1769 11.9176 31.318 11.6877 30.1083 11.6877H25.7896V20.0361C25.7896 20.7136 25.8622 21.2097 26.0073 21.5243C26.1525 21.8389 26.4186 22.0566 26.8058 22.1776C27.1929 22.2986 27.7977 22.3591 28.6203 22.3591H31.5237C32.685 22.3591 33.6528 21.9477 34.427 21.125C35.2013 20.3023 35.7214 19.165 35.9876 17.7131Z" fill="#2A2A2A"/>
<path d="M52.9398 23.5569C50.3026 23.5569 48.0041 23.0488 46.0444 22.0324C44.0846 21.0161 42.5846 19.6368 41.5442 17.8946C40.528 16.1523 40.0199 14.2043 40.0199 12.0507C40.0199 9.70347 40.6127 7.62242 41.7982 5.80756C43.008 3.9927 44.6532 2.5771 46.7339 1.56078C48.8389 0.544458 51.2099 0.0362972 53.8471 0.0362972C55.0327 0.0362972 56.1577 0.157288 57.2223 0.399269C58.311 0.617053 59.1941 0.93163 59.8716 1.343C60.0651 1.46399 60.174 1.57288 60.1982 1.66967C60.2466 1.74227 60.2829 1.91166 60.3071 2.17784L60.7426 6.24313C60.7426 6.31572 60.67 6.36412 60.5248 6.38832C60.4038 6.38832 60.3313 6.35202 60.3071 6.27943C59.7748 4.53716 58.807 3.19416 57.4037 2.25043C56.0246 1.3067 54.3189 0.834837 52.2866 0.834837C49.2381 0.834837 46.8791 1.71807 45.2097 3.48454C43.5402 5.251 42.7055 7.67082 42.7055 10.744C42.7055 13.0912 43.1773 15.1965 44.1209 17.0597C45.0887 18.8988 46.4194 20.3386 48.113 21.3791C49.8066 22.4196 51.7059 22.9399 53.8108 22.9399C55.0448 22.9399 56.0004 22.831 56.6779 22.6132C57.3553 22.3954 57.8513 21.9719 58.1659 21.3428C58.4804 20.7136 58.6376 19.782 58.6376 18.5479C58.6376 17.2896 58.553 16.4185 58.3836 15.9345C58.2384 15.4263 57.8876 15.0876 57.3311 14.9182C56.7989 14.7488 55.8674 14.6641 54.5367 14.6641C54.3915 14.6641 54.3189 14.5673 54.3189 14.3737C54.3189 14.3011 54.331 14.2406 54.3552 14.1922C54.4036 14.1196 54.452 14.0833 54.5004 14.0833C56.3876 14.2043 57.9118 14.2648 59.0731 14.2648C60.2103 14.2648 61.3958 14.2285 62.6297 14.1559C62.6781 14.1559 62.7144 14.1922 62.7386 14.2648C62.787 14.3132 62.8112 14.3616 62.8112 14.41C62.8112 14.5794 62.7507 14.6641 62.6297 14.6641C62.0491 14.6399 61.6378 14.7246 61.3958 14.9182C61.1539 15.0876 60.9966 15.4505 60.924 16.0071C60.8514 16.5637 60.8152 17.5316 60.8152 18.9109C60.8152 19.9998 60.8514 20.7741 60.924 21.2339C61.0208 21.6937 61.0692 21.984 61.0692 22.105C61.0692 22.2502 61.045 22.347 60.9966 22.3954C60.9482 22.4438 60.8393 22.4922 60.67 22.5406C57.7424 23.2181 55.1657 23.5569 52.9398 23.5569Z" fill="#2A2A2A"/>
<path d="M93.6181 22.6858C93.6907 22.6858 93.727 22.7584 93.727 22.9036C93.727 23.0488 93.6907 23.1214 93.6181 23.1214C92.8681 23.1214 92.2753 23.1093 91.8398 23.0851L89.3357 23.0488L87.013 23.0851C86.6259 23.1093 86.0815 23.1214 85.3799 23.1214C85.3315 23.1214 85.3073 23.0488 85.3073 22.9036C85.3073 22.7584 85.3315 22.6858 85.3799 22.6858C86.2025 22.6858 86.8074 22.6253 87.1945 22.5043C87.6058 22.3591 87.8719 22.1171 87.9929 21.7784C88.1381 21.4396 88.1865 20.9072 88.1381 20.1813L87.4848 3.66602L79.2103 22.8673C79.1619 22.9641 79.0651 23.0125 78.9199 23.0125C78.799 23.0125 78.6901 22.9641 78.5933 22.8673L69.6655 3.88381L69.3389 19.165C69.3147 20.4475 69.5325 21.3549 69.9922 21.8872C70.4519 22.4196 71.2624 22.6858 72.4237 22.6858C72.4721 22.6858 72.4963 22.7584 72.4963 22.9036C72.4963 23.0488 72.4721 23.1214 72.4237 23.1214C71.7463 23.1214 71.2261 23.1093 70.8632 23.0851L68.9034 23.0488L67.0162 23.0851C66.6775 23.1093 66.1936 23.1214 65.5646 23.1214C65.5162 23.1214 65.492 23.0488 65.492 22.9036C65.492 22.7584 65.5162 22.6858 65.5646 22.6858C66.5807 22.6858 67.3066 22.4196 67.7421 21.8872C68.2018 21.3307 68.4437 20.4233 68.4679 19.165L68.7945 2.32303C68.0687 1.3551 67.0767 0.871134 65.8186 0.871134C65.7702 0.871134 65.746 0.79854 65.746 0.653352C65.746 0.508163 65.7702 0.435568 65.8186 0.435568L67.1614 0.471865C67.4033 0.496063 67.7421 0.508162 68.1776 0.508162C68.6131 0.508162 68.976 0.496063 69.2663 0.471865C69.5808 0.447667 69.8228 0.435568 69.9922 0.435568C70.3067 0.435568 70.5607 0.556559 70.7543 0.798541C70.972 1.01632 71.2745 1.52449 71.6616 2.32303L79.7547 19.3827L87.6663 1.343C87.9324 0.738045 88.2953 0.435568 88.755 0.435568C88.876 0.435568 89.0454 0.447667 89.2631 0.471865C89.5051 0.496063 89.8196 0.508162 90.2067 0.508162L91.9124 0.471865C92.1786 0.447667 92.5778 0.435568 93.11 0.435568C93.1826 0.435568 93.2189 0.508163 93.2189 0.653352C93.2189 0.79854 93.1826 0.871134 93.11 0.871134C91.9003 0.871134 91.0293 1.05262 90.497 1.41559C89.9889 1.75437 89.747 2.40772 89.7712 3.37565L90.497 20.1813C90.5212 20.9314 90.6059 21.4759 90.7511 21.8147C90.9204 22.1534 91.2108 22.3833 91.6221 22.5043C92.0334 22.6253 92.6987 22.6858 93.6181 22.6858Z" fill="#2A2A2A"/>
<path d="M119.855 22.6858C119.952 22.6858 120 22.7584 120 22.9036C120 23.0488 119.952 23.1214 119.855 23.1214C119.395 23.1214 118.681 23.0972 117.714 23.0488C116.746 23.0004 116.044 22.9762 115.609 22.9762C115.076 22.9762 114.399 23.0004 113.576 23.0488C112.802 23.0972 112.209 23.1214 111.798 23.1214C111.701 23.1214 111.653 23.0488 111.653 22.9036C111.653 22.7584 111.701 22.6858 111.798 22.6858C112.693 22.6858 113.347 22.6011 113.758 22.4317C114.169 22.2623 114.375 21.9719 114.375 21.5606C114.375 21.2218 114.218 20.7015 113.903 19.9998L109.729 11.107H102.87L99.7492 18.5116C99.4105 19.3343 99.2411 20.0119 99.2411 20.5443C99.2411 21.9719 100.427 22.6858 102.798 22.6858C102.919 22.6858 102.979 22.7584 102.979 22.9036C102.979 23.0488 102.919 23.1214 102.798 23.1214C102.362 23.1214 101.733 23.0972 100.911 23.0488C99.9911 23.0004 99.1927 22.9762 98.5153 22.9762C97.8862 22.9762 97.1604 23.0004 96.3377 23.0488C95.6119 23.0972 95.007 23.1214 94.5232 23.1214C94.4022 23.1214 94.3417 23.0488 94.3417 22.9036C94.3417 22.7584 94.4022 22.6858 94.5232 22.6858C95.2006 22.6858 95.7692 22.5648 96.2289 22.3228C96.7128 22.0566 97.1604 21.609 97.5717 20.9798C98.0072 20.3265 98.479 19.3948 98.987 18.1849L106.645 0.108893C106.693 0.0362975 106.778 0 106.899 0C107.02 0 107.092 0.0362975 107.116 0.108893L115.681 18.1486C116.504 19.9393 117.206 21.1492 117.786 21.7784C118.367 22.3833 119.056 22.6858 119.855 22.6858ZM103.197 10.3447H109.367L106.1 3.44824L103.197 10.3447Z" fill="#2A2A2A"/>
<path d="M2.93233 43.2425C2.39502 43.2425 1.90344 43.1268 1.45759 42.8954C1.01174 42.6529 0.657345 42.3168 0.394407 41.887C0.131469 41.4572 0 40.9778 0 40.4488V30.6954H0.54874V40.4488C0.54874 40.8896 0.651629 41.2864 0.857406 41.639C1.07462 41.9917 1.36613 42.2727 1.73196 42.4821C2.09779 42.6805 2.49791 42.7797 2.93233 42.7797V43.2425Z" fill="#2A2A2A"/>
<path d="M8.34109 43.2756C7.60943 43.2756 6.92922 43.0993 6.30046 42.7466C5.6717 42.3939 5.1744 41.9201 4.80857 41.3249C4.44275 40.7188 4.25983 40.0686 4.25983 39.3742C4.25983 38.6799 4.44275 38.0352 4.80857 37.4401C5.1744 36.834 5.6717 36.3546 6.30046 36.0019C6.92922 35.6492 7.60943 35.4729 8.34109 35.4729C9.08417 35.4729 9.78724 35.6658 10.4503 36.0515C11.1134 36.4262 11.5764 36.9166 11.8393 37.5228V35.6547H12.388V43.0938H11.8393V41.2423C11.5306 41.8594 11.0505 42.3554 10.3989 42.7301C9.75867 43.0938 9.07274 43.2756 8.34109 43.2756ZM8.37538 42.8127C9.00415 42.8127 9.58718 42.6584 10.1245 42.3499C10.6618 42.0303 11.0848 41.6115 11.3935 41.0935C11.7136 40.5645 11.8736 39.9914 11.8736 39.3742C11.8736 38.7681 11.7136 38.2005 11.3935 37.6715C11.0734 37.1425 10.6447 36.7238 10.1073 36.4152C9.57004 36.0956 8.987 35.9358 8.35824 35.9358C7.72947 35.9358 7.14072 36.0956 6.59198 36.4152C6.05467 36.7348 5.62025 37.1591 5.28872 37.6881C4.96862 38.2171 4.80857 38.7846 4.80857 39.3908C4.80857 39.9969 4.96862 40.5645 5.28872 41.0935C5.62025 41.6115 6.06039 42.0303 6.60913 42.3499C7.15787 42.6584 7.74662 42.8127 8.37538 42.8127Z" fill="#2A2A2A"/>
<path d="M14.5525 35.6547H15.1012V37.3079C15.3527 36.7568 15.7814 36.316 16.3873 35.9854C16.9932 35.6437 17.662 35.4729 18.3936 35.4729C19.3425 35.4729 20.0913 35.7649 20.64 36.349C21.2002 36.9221 21.4803 37.7266 21.4803 38.7626V43.0938H20.9316V38.7626C20.9316 37.8699 20.7029 37.1756 20.2456 36.6797C19.7998 36.1837 19.171 35.9358 18.3593 35.9358C17.7649 35.9358 17.2161 36.068 16.7131 36.3325C16.2215 36.586 15.8271 36.9387 15.5299 37.3905C15.2441 37.8424 15.1012 38.3548 15.1012 38.9279V43.0938H14.5525V35.6547Z" fill="#2A2A2A"/>
<path d="M27.2811 43.2756C26.538 43.2756 25.852 43.0993 25.2233 42.7466C24.6059 42.3939 24.1144 41.9201 23.7485 41.3249C23.3827 40.7298 23.1998 40.0796 23.1998 39.3742C23.1998 38.6689 23.3827 38.0187 23.7485 37.4236C24.1144 36.8284 24.6059 36.3546 25.2233 36.0019C25.852 35.6492 26.538 35.4729 27.2811 35.4729C28.0013 35.4729 28.6872 35.6602 29.3388 36.035C29.9905 36.3986 30.4706 36.878 30.7793 37.4732V30.6954H31.328V43.0938H30.7793V41.2919C30.4363 41.887 29.939 42.3664 29.2874 42.7301C28.6472 43.0938 27.9784 43.2756 27.2811 43.2756ZM27.2639 42.8127C27.8927 42.8127 28.4757 42.6584 29.013 42.3499C29.5618 42.0303 29.9962 41.6115 30.3163 41.0935C30.6478 40.5645 30.8136 39.9969 30.8136 39.3908C30.8136 38.7846 30.6478 38.2171 30.3163 37.6881C29.9962 37.1591 29.5618 36.7348 29.013 36.4152C28.4757 36.0956 27.8927 35.9358 27.2639 35.9358C26.6351 35.9358 26.0521 36.0956 25.5148 36.4152C24.9775 36.7238 24.5488 37.1425 24.2287 37.6715C23.9086 38.2005 23.7485 38.7681 23.7485 39.3742C23.7485 39.9914 23.9029 40.5645 24.2115 41.0935C24.5316 41.6115 24.9603 42.0303 25.4976 42.3499C26.0464 42.6584 26.6351 42.8127 27.2639 42.8127Z" fill="#2A2A2A"/>
<path d="M35.3616 43.2756C34.8128 43.2756 34.327 43.1874 33.904 43.0111C33.481 42.8238 33.178 42.5868 32.9951 42.3003V41.4241C33.2123 41.898 33.5096 42.2507 33.8868 42.4821C34.2641 42.7025 34.7442 42.8127 35.3273 42.8127C35.8874 42.8127 36.339 42.6474 36.682 42.3168C37.0249 41.9752 37.1964 41.5398 37.1964 41.0108C37.1964 40.559 37.0992 40.2118 36.9049 39.9694C36.7106 39.7159 36.3962 39.4624 35.9618 39.2089L35.3101 38.8453C34.8414 38.5697 34.487 38.3548 34.2469 38.2005C34.0183 38.0352 33.8354 37.8534 33.6982 37.655C33.561 37.4456 33.4924 37.2032 33.4924 36.9276C33.4924 36.4868 33.6525 36.1341 33.9726 35.8696C34.2927 35.6051 34.7099 35.4729 35.2244 35.4729C35.8531 35.4729 36.379 35.6107 36.802 35.8862V36.6135C36.4476 36.1617 35.9389 35.9358 35.2758 35.9358C34.91 35.9358 34.6128 36.0239 34.3841 36.2003C34.1555 36.3766 34.0412 36.6025 34.0412 36.878C34.0412 37.1205 34.1098 37.3354 34.2469 37.5228C34.3841 37.6991 34.5728 37.8644 34.8128 38.0187C35.0643 38.173 35.4759 38.4044 36.0475 38.713C36.6305 39.0326 37.0592 39.3632 37.3336 39.7049C37.608 40.0355 37.7452 40.4708 37.7452 41.0108C37.7452 41.6941 37.5108 42.2452 37.0421 42.664C36.5848 43.0717 36.0246 43.2756 35.3616 43.2756Z" fill="#2A2A2A"/>
<path d="M43.0895 43.3087C42.3464 43.3087 41.6605 43.1378 41.0317 42.7962C40.4144 42.4546 39.9228 41.9862 39.557 41.3911C39.1911 40.7959 39.0082 40.1237 39.0082 39.3742C39.0082 38.6799 39.1911 38.0407 39.557 37.4566C39.9228 36.8615 40.4201 36.3876 41.0488 36.035C41.689 35.6823 42.3921 35.506 43.1581 35.506C43.7983 35.506 44.347 35.6051 44.8043 35.8035C45.2616 36.0019 45.7074 36.3105 46.1418 36.7293V37.6219C45.7646 37.0819 45.3416 36.6742 44.8729 36.3986C44.4156 36.1121 43.844 35.9688 43.1581 35.9688C42.5293 35.9688 41.9348 36.1286 41.3747 36.4482C40.8259 36.7568 40.3858 37.1756 40.0543 37.7046C39.7227 38.2336 39.557 38.8012 39.557 39.4073C39.557 40.0686 39.717 40.6637 40.0371 41.1927C40.3572 41.7107 40.7859 42.1184 41.3232 42.416C41.872 42.7025 42.4607 42.8458 43.0895 42.8458C44.3699 42.8458 45.3873 42.2892 46.1418 41.1761V42.0688C45.7303 42.4876 45.273 42.8017 44.77 43.0111C44.2784 43.2095 43.7182 43.3087 43.0895 43.3087Z" fill="#2A2A2A"/>
<path d="M51.2951 43.2756C50.5635 43.2756 49.8833 43.0993 49.2545 42.7466C48.6257 42.3939 48.1284 41.9201 47.7626 41.3249C47.3968 40.7188 47.2139 40.0686 47.2139 39.3742C47.2139 38.6799 47.3968 38.0352 47.7626 37.4401C48.1284 36.834 48.6257 36.3546 49.2545 36.0019C49.8833 35.6492 50.5635 35.4729 51.2951 35.4729C52.0382 35.4729 52.7413 35.6658 53.4043 36.0515C54.0674 36.4262 54.5304 36.9166 54.7933 37.5228V35.6547H55.3421V43.0938H54.7933V41.2423C54.4847 41.8594 54.0045 42.3554 53.3529 42.7301C52.7127 43.0938 52.0268 43.2756 51.2951 43.2756ZM51.3294 42.8127C51.9582 42.8127 52.5412 42.6584 53.0785 42.3499C53.6158 42.0303 54.0388 41.6115 54.3475 41.0935C54.6676 40.5645 54.8276 39.9914 54.8276 39.3742C54.8276 38.7681 54.6676 38.2005 54.3475 37.6715C54.0274 37.1425 53.5987 36.7238 53.0614 36.4152C52.5241 36.0956 51.941 35.9358 51.3123 35.9358C50.6835 35.9358 50.0948 36.0956 49.546 36.4152C49.0087 36.7348 48.5743 37.1591 48.2428 37.6881C47.9227 38.2171 47.7626 38.7846 47.7626 39.3908C47.7626 39.9969 47.9227 40.5645 48.2428 41.0935C48.5743 41.6115 49.0144 42.0303 49.5632 42.3499C50.1119 42.6584 50.7007 42.8127 51.3294 42.8127Z" fill="#2A2A2A"/>
<path d="M57.5065 35.6547H58.0552V37.4732C58.3639 36.878 58.844 36.3986 59.4957 36.035C60.1473 35.6602 60.8332 35.4729 61.5534 35.4729C62.2965 35.4729 62.9767 35.6492 63.5941 36.0019C64.2228 36.3546 64.7201 36.8284 65.086 37.4236C65.4518 38.0187 65.6347 38.6689 65.6347 39.3742C65.6347 40.0796 65.4518 40.7298 65.086 41.3249C64.7201 41.9201 64.2228 42.3939 63.5941 42.7466C62.9767 43.0993 62.2965 43.2756 61.5534 43.2756C60.8561 43.2756 60.1816 43.0938 59.53 42.7301C58.8898 42.3664 58.3982 41.887 58.0552 41.2919V46.4H57.5065V35.6547ZM61.5877 42.8127C62.2165 42.8127 62.7995 42.6584 63.3368 42.3499C63.8742 42.0303 64.2971 41.6115 64.6058 41.0935C64.9259 40.5645 65.086 39.9914 65.086 39.3742C65.086 38.7681 64.9259 38.2005 64.6058 37.6715C64.2857 37.1425 63.857 36.7238 63.3197 36.4152C62.7824 36.0956 62.1994 35.9358 61.5706 35.9358C60.9418 35.9358 60.3531 36.0956 59.8043 36.4152C59.267 36.7348 58.8326 37.1591 58.5011 37.6881C58.181 38.2171 58.0209 38.7846 58.0209 39.3908C58.0209 39.9969 58.181 40.5645 58.5011 41.0935C58.8326 41.6115 59.2727 42.0303 59.8215 42.3499C60.3702 42.6584 60.959 42.8127 61.5877 42.8127Z" fill="#2A2A2A"/>
<path d="M71.1087 42.8293C71.7032 42.8293 72.2691 42.6805 72.8064 42.3829C73.3437 42.0854 73.7895 41.6776 74.1439 41.1596V42.0027C73.7209 42.4546 73.2579 42.7852 72.7549 42.9946C72.2519 43.193 71.6803 43.2921 71.0401 43.2921C70.3313 43.2921 69.6625 43.1103 69.0338 42.7466C68.4164 42.3829 67.9192 41.898 67.5419 41.2919C67.1761 40.6857 66.9931 40.041 66.9931 39.3577C66.9931 38.6193 67.1761 37.9581 67.5419 37.374C67.9077 36.7789 68.405 36.316 69.0338 35.9854C69.674 35.6547 70.3828 35.4894 71.1601 35.4894C72.3491 35.4894 73.3608 35.9413 74.1954 36.845L68.8108 41.9696C69.1881 42.2672 69.5539 42.4876 69.9083 42.6309C70.2627 42.7631 70.6628 42.8293 71.1087 42.8293ZM67.5419 39.3081C67.5419 40.2229 67.8563 41.0053 68.485 41.6556L73.5094 36.845C73.1322 36.5254 72.7663 36.2995 72.412 36.1672C72.0576 36.0239 71.6346 35.9523 71.143 35.9523C70.4456 35.9523 69.8226 36.1011 69.2738 36.3986C68.7365 36.6852 68.3136 37.0819 68.0049 37.5889C67.6962 38.0958 67.5419 38.6689 67.5419 39.3081Z" fill="#2A2A2A"/>
<path d="M81.5476 43.2756C80.9989 43.2756 80.513 43.1874 80.09 43.0111C79.667 42.8238 79.3641 42.5868 79.1812 42.3003V41.4241C79.3984 41.898 79.6956 42.2507 80.0729 42.4821C80.4501 42.7025 80.9303 42.8127 81.5133 42.8127C82.0735 42.8127 82.5251 42.6474 82.868 42.3168C83.211 41.9752 83.3825 41.5398 83.3825 41.0108C83.3825 40.559 83.2853 40.2118 83.0909 39.9694C82.8966 39.7159 82.5822 39.4624 82.1478 39.2089L81.4962 38.8453C81.0275 38.5697 80.6731 38.3548 80.433 38.2005C80.2043 38.0352 80.0214 37.8534 79.8842 37.655C79.7471 37.4456 79.6785 37.2032 79.6785 36.9276C79.6785 36.4868 79.8385 36.1341 80.1586 35.8696C80.4787 35.6051 80.896 35.4729 81.4104 35.4729C82.0392 35.4729 82.5651 35.6107 82.9881 35.8862V36.6135C82.6337 36.1617 82.1249 35.9358 81.4619 35.9358C81.0961 35.9358 80.7988 36.0239 80.5702 36.2003C80.3415 36.3766 80.2272 36.6025 80.2272 36.878C80.2272 37.1205 80.2958 37.3354 80.433 37.5228C80.5702 37.6991 80.7588 37.8644 80.9989 38.0187C81.2504 38.173 81.6619 38.4044 82.2335 38.713C82.8166 39.0326 83.2453 39.3632 83.5197 39.7049C83.794 40.0355 83.9312 40.4708 83.9312 41.0108C83.9312 41.6941 83.6968 42.2452 83.2281 42.664C82.7709 43.0717 82.2107 43.2756 81.5476 43.2756Z" fill="#2A2A2A"/>
<path d="M88.401 43.193C87.555 43.193 86.8519 42.945 86.2917 42.4491C85.743 41.9531 85.4686 41.2698 85.4686 40.3992V32.6626H86.0174V35.6547H88.3838V36.1176H86.0174V40.3992C86.0174 41.1266 86.2403 41.6996 86.6862 42.1184C87.1434 42.5262 87.715 42.7301 88.401 42.7301V43.193Z" fill="#2A2A2A"/>
<path d="M93.2387 43.2756C92.1527 43.2756 91.3124 42.9891 90.718 42.416C90.1349 41.8429 89.8434 41.0329 89.8434 39.9859V35.6547H90.3922V39.9859C90.3922 40.8896 90.6379 41.5894 91.1295 42.0854C91.6325 42.5703 92.3356 42.8127 93.2387 42.8127C93.7875 42.8127 94.2905 42.697 94.7478 42.4656C95.2051 42.2231 95.5652 41.887 95.8281 41.4572C96.091 41.0274 96.2225 40.5369 96.2225 39.9859V35.6547H96.7713V43.0938H96.2225V41.7051C95.9596 42.168 95.5652 42.5482 95.0393 42.8458C94.5134 43.1323 93.9132 43.2756 93.2387 43.2756Z" fill="#2A2A2A"/>
<path d="M102.572 43.2756C101.829 43.2756 101.143 43.0993 100.514 42.7466C99.8969 42.3939 99.4053 41.9201 99.0395 41.3249C98.6737 40.7298 98.4908 40.0796 98.4908 39.3742C98.4908 38.6689 98.6737 38.0187 99.0395 37.4236C99.4053 36.8284 99.8969 36.3546 100.514 36.0019C101.143 35.6492 101.829 35.4729 102.572 35.4729C103.292 35.4729 103.978 35.6602 104.63 36.035C105.281 36.3986 105.762 36.878 106.07 37.4732V30.6954H106.619V43.0938H106.07V41.2919C105.727 41.887 105.23 42.3664 104.578 42.7301C103.938 43.0938 103.269 43.2756 102.572 43.2756ZM102.555 42.8127C103.184 42.8127 103.767 42.6584 104.304 42.3499C104.853 42.0303 105.287 41.6115 105.607 41.0935C105.939 40.5645 106.105 39.9969 106.105 39.3908C106.105 38.7846 105.939 38.2171 105.607 37.6881C105.287 37.1591 104.853 36.7348 104.304 36.4152C103.767 36.0956 103.184 35.9358 102.555 35.9358C101.926 35.9358 101.343 36.0956 100.806 36.4152C100.268 36.7238 99.8398 37.1425 99.5197 37.6715C99.1996 38.2005 99.0395 38.7681 99.0395 39.3742C99.0395 39.9914 99.1938 40.5645 99.5025 41.0935C99.8226 41.6115 100.251 42.0303 100.789 42.3499C101.337 42.6584 101.926 42.8127 102.555 42.8127Z" fill="#2A2A2A"/>
<path d="M109.452 33.952C109.292 33.952 109.149 33.8969 109.023 33.7867C108.909 33.6765 108.852 33.5387 108.852 33.3734C108.852 33.2191 108.909 33.0869 109.023 32.9767C109.149 32.8665 109.292 32.8114 109.452 32.8114C109.612 32.8114 109.749 32.8665 109.864 32.9767C109.989 33.0869 110.052 33.2191 110.052 33.3734C110.052 33.5387 109.989 33.6765 109.864 33.7867C109.749 33.8969 109.612 33.952 109.452 33.952ZM109.178 35.6547H109.727V43.0938H109.178V35.6547Z" fill="#2A2A2A"/>
<path d="M115.953 43.3583C115.176 43.3583 114.473 43.1764 113.844 42.8127C113.215 42.438 112.723 41.9476 112.369 41.3415C112.015 40.7243 111.838 40.0575 111.838 39.3412C111.838 38.6359 112.015 37.9801 112.369 37.374C112.735 36.7678 113.226 36.2884 113.844 35.9358C114.473 35.5721 115.17 35.3902 115.936 35.3902C116.69 35.3902 117.376 35.5721 117.994 35.9358C118.622 36.2884 119.114 36.7678 119.468 37.374C119.823 37.9801 120 38.6359 120 39.3412C120 40.0796 119.829 40.7574 119.486 41.3745C119.143 41.9807 118.662 42.4656 118.045 42.8293C117.439 43.1819 116.742 43.3583 115.953 43.3583ZM115.953 42.8954C116.605 42.8954 117.199 42.7356 117.736 42.416C118.274 42.0964 118.691 41.6721 118.988 41.1431C119.297 40.6031 119.451 40.0135 119.451 39.3742C119.451 38.7461 119.297 38.162 118.988 37.6219C118.68 37.0819 118.257 36.6521 117.719 36.3325C117.182 36.0129 116.588 35.8531 115.936 35.8531C115.284 35.8531 114.684 36.0184 114.135 36.349C113.598 36.6687 113.169 37.0985 112.849 37.6385C112.541 38.1785 112.386 38.7626 112.386 39.3908C112.386 40.019 112.541 40.6031 112.849 41.1431C113.169 41.6721 113.598 42.0964 114.135 42.416C114.684 42.7356 115.29 42.8954 115.953 42.8954Z" fill="#2A2A2A"/>
</svg>
