<svg aria-hidden="true" style="position: absolute; width: 0; height: 0; overflow: hidden;" version="1.1" xmlns="http://www.w3.org/2000/svg" xmlns:xlink="http://www.w3.org/1999/xlink">
<defs>
<symbol id="icon-plus" viewBox="0 0 32 32">
<path d="M14.323 32v-14.545h-14.323v-3.232h14.323v-14.222h3.355v14.222h14.323v3.232h-14.323v14.545h-3.355z"></path>
</symbol>
<symbol id="icon-cross" viewBox="0 0 32 32">
<path d="M28.972 32l-13.128-13.128-12.927 12.927-2.917-2.917 12.927-12.927-12.836-12.836 3.028-3.028 12.836 12.836 12.927-12.927 2.917 2.917-12.927 12.927 13.128 13.128-3.028 3.028z"></path>
</symbol>
<symbol id="begma-logo" viewBox="0 0 82 32">
<path d="M7.19 7.043c1.301 0.099 2.347 0.535 3.138 1.31 0.807 0.758 1.211 1.705 1.211 2.842 0 0.873-0.214 1.664-0.642 2.372s-1.021 1.269-1.779 1.68c-0.741 0.395-1.573 0.593-2.496 0.593-0.544 0-1.137-0.025-1.779-0.074-0.231-0.016-0.502-0.033-0.815-0.049s-0.659-0.025-1.038-0.025l-1.68 0.025c-0.297 0.016-0.717 0.025-1.26 0.025-0.033 0-0.049-0.049-0.049-0.148s0.016-0.148 0.049-0.148c0.626 0 1.087-0.041 1.384-0.124 0.296-0.099 0.502-0.264 0.618-0.494s0.173-0.593 0.173-1.087v-11.442c0-0.494-0.058-0.857-0.173-1.087-0.099-0.231-0.296-0.387-0.593-0.47-0.296-0.099-0.75-0.148-1.359-0.148-0.049 0-0.074-0.049-0.074-0.148s0.025-0.148 0.074-0.148l1.211 0.025c0.692 0.033 1.252 0.049 1.68 0.049 0.296 0 0.568-0.008 0.815-0.025 0.264-0.016 0.486-0.033 0.667-0.049 0.511-0.049 0.988-0.074 1.433-0.074 1.384 0 2.421 0.305 3.113 0.914 0.692 0.593 1.038 1.376 1.038 2.348 0 0.791-0.255 1.499-0.766 2.125-0.511 0.61-1.211 1.087-2.1 1.433zM5.362 0.593c-0.428 0-0.75 0.033-0.964 0.099-0.198 0.066-0.346 0.222-0.445 0.47s-0.148 0.643-0.148 1.186v4.695l1.112 0.025c1.203 0 2.092-0.305 2.669-0.914 0.577-0.626 0.865-1.45 0.865-2.471 0-0.923-0.255-1.664-0.766-2.224-0.494-0.577-1.268-0.865-2.323-0.865zM6.251 15.396c1.202 0 2.092-0.305 2.669-0.914 0.593-0.626 0.89-1.516 0.89-2.669 0-1.252-0.371-2.265-1.112-3.040-0.725-0.774-1.73-1.17-3.015-1.186-0.527-0.016-1.153 0-1.878 0.049v6.104c0 0.428 0.058 0.758 0.173 0.989 0.132 0.231 0.371 0.404 0.717 0.519 0.362 0.099 0.881 0.148 1.557 0.148z"></path>
<path d="M24.502 12.060c0-0.033 0.033-0.049 0.099-0.049 0.049 0 0.091 0.008 0.123 0.025 0.049 0.016 0.074 0.041 0.074 0.074-0.148 1.038-0.222 2.125-0.222 3.262 0 0.132-0.033 0.231-0.099 0.297-0.049 0.049-0.148 0.074-0.296 0.074h-10.353c-0.033 0-0.049-0.049-0.049-0.148s0.016-0.148 0.049-0.148c0.626 0 1.079-0.041 1.359-0.124 0.296-0.082 0.494-0.239 0.593-0.47 0.115-0.247 0.173-0.618 0.173-1.112v-11.442c0-0.494-0.058-0.857-0.173-1.087-0.099-0.231-0.296-0.387-0.593-0.47-0.28-0.099-0.733-0.148-1.359-0.148-0.033 0-0.049-0.049-0.049-0.148s0.016-0.148 0.049-0.148h9.933c0.148 0 0.222 0.074 0.222 0.222l0.049 3.040c0 0.049-0.041 0.082-0.123 0.099-0.082 0-0.132-0.025-0.148-0.074-0.049-0.873-0.313-1.549-0.791-2.026-0.478-0.494-1.112-0.741-1.903-0.741h-1.507c-0.577 0-1.005 0.049-1.285 0.148-0.264 0.082-0.453 0.239-0.568 0.47-0.099 0.214-0.148 0.544-0.148 0.989v5.017h3.015c0.791 0 1.351-0.132 1.68-0.395 0.346-0.264 0.519-0.708 0.519-1.335 0-0.033 0.049-0.049 0.148-0.049s0.148 0.016 0.148 0.049l-0.025 2.002c0 0.478 0.008 0.84 0.025 1.087l0.025 1.186c0 0.033-0.049 0.049-0.148 0.049s-0.148-0.016-0.148-0.049c0-0.725-0.181-1.244-0.544-1.557-0.346-0.313-0.931-0.47-1.754-0.47h-2.94v5.684c0 0.461 0.049 0.799 0.148 1.013s0.28 0.362 0.544 0.445c0.264 0.082 0.675 0.124 1.235 0.124h1.977c0.791 0 1.45-0.28 1.977-0.84s0.881-1.334 1.063-2.323z"></path>
<path d="M36.044 16.039c-1.796 0-3.36-0.346-4.695-1.038s-2.356-1.631-3.064-2.817c-0.692-1.186-1.038-2.513-1.038-3.979 0-1.598 0.404-3.015 1.211-4.251 0.824-1.236 1.944-2.199 3.36-2.891 1.433-0.692 3.047-1.038 4.843-1.038 0.807 0 1.573 0.082 2.298 0.247 0.741 0.148 1.343 0.362 1.804 0.643 0.132 0.082 0.206 0.157 0.222 0.222 0.033 0.049 0.058 0.165 0.074 0.346l0.297 2.768c0 0.049-0.049 0.082-0.148 0.099-0.082 0-0.132-0.025-0.148-0.074-0.362-1.186-1.021-2.101-1.977-2.743-0.939-0.643-2.1-0.964-3.484-0.964-2.076 0-3.682 0.601-4.818 1.804s-1.705 2.85-1.705 4.943c0 1.598 0.321 3.032 0.964 4.3 0.659 1.252 1.565 2.232 2.718 2.941s2.446 1.063 3.879 1.063c0.84 0 1.491-0.074 1.952-0.222s0.799-0.437 1.013-0.865c0.214-0.428 0.321-1.063 0.321-1.903 0-0.857-0.058-1.45-0.173-1.779-0.099-0.346-0.338-0.577-0.717-0.692-0.362-0.115-0.997-0.173-1.903-0.173-0.099 0-0.148-0.066-0.148-0.198 0-0.049 0.008-0.091 0.025-0.124 0.033-0.049 0.066-0.074 0.099-0.074 1.285 0.082 2.323 0.124 3.113 0.124 0.774 0 1.581-0.025 2.422-0.074 0.033 0 0.058 0.025 0.074 0.074 0.033 0.033 0.049 0.066 0.049 0.099 0 0.115-0.041 0.173-0.124 0.173-0.395-0.016-0.675 0.041-0.84 0.173-0.165 0.115-0.272 0.362-0.321 0.741s-0.074 1.038-0.074 1.977c0 0.741 0.025 1.269 0.074 1.582 0.066 0.313 0.099 0.511 0.099 0.593 0 0.099-0.016 0.165-0.049 0.198s-0.107 0.066-0.222 0.099c-1.993 0.461-3.748 0.692-5.263 0.692z"></path>
<path d="M63.74 15.446c0.049 0 0.074 0.049 0.074 0.148s-0.025 0.148-0.074 0.148c-0.511 0-0.914-0.008-1.211-0.025l-1.705-0.025-1.581 0.025c-0.264 0.016-0.634 0.025-1.112 0.025-0.033 0-0.049-0.049-0.049-0.148s0.016-0.148 0.049-0.148c0.56 0 0.972-0.041 1.235-0.124 0.28-0.099 0.461-0.264 0.544-0.494 0.099-0.231 0.132-0.593 0.099-1.087l-0.445-11.244-5.634 13.073c-0.033 0.066-0.099 0.099-0.198 0.099-0.082 0-0.156-0.033-0.222-0.099l-6.078-12.925-0.222 10.404c-0.016 0.873 0.132 1.491 0.445 1.853s0.865 0.544 1.656 0.544c0.033 0 0.049 0.049 0.049 0.148s-0.016 0.148-0.049 0.148c-0.461 0-0.815-0.008-1.062-0.025l-1.334-0.025-1.285 0.025c-0.231 0.016-0.56 0.025-0.988 0.025-0.033 0-0.049-0.049-0.049-0.148s0.016-0.148 0.049-0.148c0.692 0 1.186-0.181 1.483-0.544 0.313-0.379 0.478-0.997 0.494-1.853l0.222-11.467c-0.494-0.659-1.17-0.989-2.026-0.989-0.033 0-0.049-0.049-0.049-0.148s0.016-0.148 0.049-0.148l0.914 0.025c0.165 0.016 0.395 0.025 0.692 0.025s0.544-0.008 0.741-0.025c0.214-0.016 0.379-0.025 0.494-0.025 0.214 0 0.387 0.082 0.519 0.247 0.148 0.148 0.354 0.494 0.618 1.038l5.51 11.615 5.387-12.282c0.181-0.412 0.428-0.618 0.741-0.618 0.082 0 0.198 0.008 0.346 0.025 0.165 0.016 0.379 0.025 0.642 0.025l1.161-0.025c0.181-0.016 0.453-0.025 0.815-0.025 0.049 0 0.074 0.049 0.074 0.148s-0.025 0.148-0.074 0.148c-0.824 0-1.417 0.124-1.779 0.371-0.346 0.231-0.511 0.675-0.494 1.335l0.494 11.442c0.016 0.511 0.074 0.881 0.173 1.112 0.115 0.231 0.313 0.387 0.593 0.47s0.733 0.124 1.359 0.124z"></path>
<path d="M81.603 15.446c0.066 0 0.099 0.049 0.099 0.148s-0.033 0.148-0.099 0.148c-0.313 0-0.799-0.016-1.458-0.049s-1.137-0.049-1.433-0.049c-0.363 0-0.824 0.016-1.384 0.049-0.527 0.033-0.931 0.049-1.211 0.049-0.066 0-0.099-0.049-0.099-0.148s0.033-0.148 0.099-0.148c0.609 0 1.055-0.058 1.334-0.173s0.42-0.313 0.42-0.593c0-0.231-0.107-0.585-0.321-1.063l-2.842-6.055h-4.67l-2.125 5.041c-0.231 0.56-0.346 1.021-0.346 1.384 0 0.972 0.807 1.458 2.422 1.458 0.082 0 0.123 0.049 0.123 0.148s-0.041 0.148-0.123 0.148c-0.297 0-0.725-0.016-1.285-0.049-0.626-0.033-1.17-0.049-1.631-0.049-0.428 0-0.922 0.016-1.483 0.049-0.494 0.033-0.906 0.049-1.235 0.049-0.082 0-0.124-0.049-0.124-0.148s0.041-0.148 0.124-0.148c0.461 0 0.848-0.082 1.161-0.247 0.329-0.181 0.634-0.486 0.914-0.914 0.296-0.445 0.618-1.079 0.964-1.903l5.214-12.307c0.033-0.049 0.091-0.074 0.173-0.074s0.131 0.025 0.148 0.074l5.832 12.282c0.56 1.219 1.038 2.043 1.433 2.471 0.396 0.412 0.865 0.618 1.409 0.618zM70.262 7.043h4.201l-2.224-4.695-1.977 4.695z"></path>
<path d="M1.996 29.442c-0.366 0-0.701-0.079-1.004-0.236-0.304-0.165-0.545-0.394-0.724-0.687s-0.269-0.619-0.269-0.979v-6.641h0.374v6.641c0 0.3 0.070 0.57 0.21 0.81 0.148 0.24 0.346 0.431 0.595 0.574 0.249 0.135 0.522 0.203 0.817 0.203v0.315z"></path>
<path d="M5.679 29.464c-0.498 0-0.961-0.12-1.389-0.36s-0.767-0.563-1.016-0.968c-0.249-0.413-0.374-0.855-0.374-1.328s0.125-0.912 0.374-1.317c0.249-0.413 0.588-0.739 1.016-0.979s0.891-0.36 1.389-0.36c0.506 0 0.985 0.131 1.436 0.394 0.451 0.255 0.767 0.589 0.946 1.002v-1.272h0.374v5.065h-0.374v-1.261c-0.21 0.42-0.537 0.758-0.981 1.013-0.436 0.248-0.903 0.371-1.401 0.371zM5.702 29.149c0.428 0 0.825-0.105 1.191-0.315 0.366-0.218 0.654-0.503 0.864-0.855 0.218-0.36 0.327-0.75 0.327-1.171 0-0.413-0.109-0.799-0.327-1.159s-0.51-0.645-0.876-0.855c-0.366-0.218-0.763-0.326-1.191-0.326s-0.829 0.109-1.203 0.326c-0.366 0.218-0.662 0.506-0.887 0.867-0.218 0.36-0.327 0.747-0.327 1.159s0.109 0.799 0.327 1.159c0.226 0.353 0.525 0.638 0.899 0.855 0.374 0.21 0.774 0.315 1.203 0.315z"></path>
<path d="M9.908 24.276h0.374v1.126c0.171-0.375 0.463-0.675 0.876-0.9 0.413-0.233 0.868-0.349 1.366-0.349 0.646 0 1.156 0.199 1.529 0.596 0.381 0.39 0.572 0.938 0.572 1.643v2.949h-0.374v-2.949c0-0.608-0.156-1.081-0.467-1.418-0.304-0.338-0.732-0.506-1.284-0.506-0.405 0-0.778 0.090-1.121 0.27-0.335 0.173-0.603 0.413-0.806 0.72-0.195 0.308-0.292 0.657-0.292 1.047v2.836h-0.374v-5.065z"></path>
<path d="M18.574 29.464c-0.506 0-0.973-0.12-1.401-0.36-0.42-0.24-0.755-0.563-1.004-0.968s-0.374-0.848-0.374-1.328c0-0.48 0.125-0.923 0.374-1.328s0.584-0.728 1.004-0.968c0.428-0.24 0.895-0.36 1.401-0.36 0.49 0 0.957 0.128 1.401 0.383 0.444 0.248 0.771 0.574 0.981 0.979v-4.615h0.374v8.441h-0.374v-1.227c-0.234 0.405-0.572 0.732-1.016 0.979-0.436 0.248-0.891 0.371-1.366 0.371zM18.563 29.149c0.428 0 0.825-0.105 1.191-0.315 0.374-0.218 0.669-0.503 0.887-0.855 0.226-0.36 0.339-0.747 0.339-1.159s-0.113-0.799-0.339-1.159c-0.218-0.36-0.514-0.649-0.887-0.867-0.366-0.218-0.763-0.326-1.191-0.326s-0.825 0.109-1.191 0.326c-0.366 0.21-0.658 0.495-0.876 0.855s-0.327 0.747-0.327 1.159c0 0.42 0.105 0.81 0.315 1.171 0.218 0.353 0.51 0.638 0.876 0.855 0.374 0.21 0.774 0.315 1.203 0.315z"></path>
<path d="M24.076 29.464c-0.374 0-0.704-0.060-0.992-0.18-0.288-0.128-0.494-0.289-0.619-0.484v-0.597c0.148 0.323 0.35 0.563 0.607 0.72 0.257 0.15 0.584 0.225 0.981 0.225 0.381 0 0.689-0.113 0.922-0.338 0.233-0.233 0.35-0.529 0.35-0.889 0-0.308-0.066-0.544-0.198-0.709-0.132-0.173-0.346-0.345-0.642-0.518l-0.444-0.248c-0.319-0.188-0.56-0.334-0.724-0.439-0.156-0.113-0.28-0.236-0.374-0.371-0.093-0.143-0.14-0.308-0.14-0.495 0-0.3 0.109-0.54 0.327-0.72s0.502-0.27 0.852-0.27c0.428 0 0.786 0.094 1.074 0.281v0.495c-0.241-0.308-0.588-0.461-1.039-0.461-0.249 0-0.451 0.060-0.607 0.18s-0.233 0.274-0.233 0.461c0 0.165 0.047 0.311 0.14 0.439 0.093 0.12 0.222 0.233 0.385 0.338 0.171 0.105 0.451 0.263 0.841 0.473 0.397 0.218 0.689 0.443 0.876 0.675 0.187 0.225 0.28 0.521 0.28 0.889 0 0.465-0.16 0.84-0.479 1.126-0.311 0.278-0.693 0.416-1.144 0.416z"></path>
<path d="M29.338 29.487c-0.506 0-0.973-0.116-1.401-0.349-0.42-0.233-0.755-0.552-1.004-0.957s-0.374-0.863-0.374-1.373c0-0.473 0.125-0.908 0.374-1.306 0.249-0.405 0.588-0.728 1.016-0.968 0.436-0.24 0.915-0.36 1.436-0.36 0.436 0 0.809 0.067 1.121 0.203s0.615 0.345 0.911 0.63v0.608c-0.257-0.368-0.545-0.645-0.864-0.833-0.311-0.195-0.701-0.293-1.168-0.293-0.428 0-0.833 0.109-1.214 0.326-0.374 0.21-0.673 0.495-0.899 0.855s-0.339 0.747-0.339 1.159c0 0.45 0.109 0.855 0.327 1.216 0.218 0.353 0.51 0.63 0.876 0.833 0.374 0.195 0.774 0.293 1.203 0.293 0.872 0 1.564-0.379 2.078-1.137v0.608c-0.28 0.285-0.592 0.499-0.934 0.642-0.335 0.135-0.716 0.203-1.144 0.203z"></path>
<path d="M34.924 29.464c-0.498 0-0.961-0.12-1.389-0.36s-0.767-0.563-1.016-0.968c-0.249-0.413-0.374-0.855-0.374-1.328s0.125-0.912 0.374-1.317c0.249-0.413 0.588-0.739 1.016-0.979s0.891-0.36 1.389-0.36c0.506 0 0.985 0.131 1.436 0.394 0.451 0.255 0.767 0.589 0.946 1.002v-1.272h0.374v5.065h-0.374v-1.261c-0.21 0.42-0.537 0.758-0.981 1.013-0.436 0.248-0.903 0.371-1.401 0.371zM34.948 29.149c0.428 0 0.825-0.105 1.191-0.315 0.366-0.218 0.654-0.503 0.864-0.855 0.218-0.36 0.327-0.75 0.327-1.171 0-0.413-0.109-0.799-0.327-1.159s-0.51-0.645-0.876-0.855c-0.366-0.218-0.763-0.326-1.191-0.326s-0.829 0.109-1.203 0.326c-0.366 0.218-0.662 0.506-0.887 0.867-0.218 0.36-0.327 0.747-0.327 1.159s0.109 0.799 0.327 1.159c0.226 0.353 0.525 0.638 0.899 0.855 0.374 0.21 0.774 0.315 1.203 0.315z"></path>
<path d="M39.153 24.276h0.374v1.238c0.21-0.405 0.537-0.732 0.981-0.979 0.444-0.255 0.911-0.383 1.401-0.383 0.506 0 0.969 0.12 1.389 0.36 0.428 0.24 0.767 0.563 1.016 0.968s0.374 0.848 0.374 1.328c0 0.48-0.125 0.923-0.374 1.328s-0.588 0.728-1.016 0.968c-0.42 0.24-0.883 0.36-1.389 0.36-0.475 0-0.934-0.124-1.378-0.371-0.436-0.248-0.771-0.574-1.004-0.979v3.478h-0.374v-7.316zM41.932 29.149c0.428 0 0.825-0.105 1.191-0.315 0.366-0.218 0.654-0.503 0.864-0.855 0.218-0.36 0.327-0.75 0.327-1.171 0-0.413-0.109-0.799-0.327-1.159s-0.51-0.645-0.876-0.855c-0.366-0.218-0.763-0.326-1.191-0.326s-0.829 0.109-1.203 0.326c-0.366 0.218-0.662 0.506-0.887 0.867-0.218 0.36-0.327 0.747-0.327 1.159s0.109 0.799 0.327 1.159c0.226 0.353 0.525 0.638 0.899 0.855 0.374 0.21 0.774 0.315 1.203 0.315z"></path>
<path d="M48.414 29.16c0.405 0 0.79-0.101 1.156-0.304s0.669-0.48 0.911-0.833v0.574c-0.288 0.308-0.603 0.533-0.946 0.675-0.342 0.135-0.732 0.203-1.168 0.203-0.483 0-0.938-0.124-1.366-0.371-0.42-0.248-0.759-0.578-1.016-0.99-0.249-0.413-0.374-0.852-0.374-1.317 0-0.503 0.125-0.953 0.374-1.351 0.249-0.405 0.588-0.72 1.016-0.945 0.436-0.225 0.918-0.338 1.448-0.338 0.81 0 1.498 0.308 2.067 0.923l-3.666 3.489c0.257 0.203 0.506 0.353 0.747 0.45 0.241 0.090 0.514 0.135 0.817 0.135zM45.986 26.763c0 0.623 0.214 1.156 0.642 1.598l3.421-3.275c-0.257-0.218-0.506-0.371-0.747-0.461-0.241-0.098-0.529-0.146-0.864-0.146-0.475 0-0.899 0.101-1.273 0.304-0.366 0.195-0.654 0.465-0.864 0.81s-0.315 0.735-0.315 1.171z"></path>
<path d="M55.522 29.464c-0.374 0-0.704-0.060-0.992-0.18-0.288-0.128-0.494-0.289-0.619-0.484v-0.597c0.148 0.323 0.35 0.563 0.607 0.72 0.257 0.15 0.584 0.225 0.981 0.225 0.381 0 0.689-0.113 0.922-0.338 0.234-0.233 0.35-0.529 0.35-0.889 0-0.308-0.066-0.544-0.199-0.709-0.132-0.173-0.346-0.345-0.642-0.518l-0.444-0.248c-0.319-0.188-0.56-0.334-0.724-0.439-0.156-0.113-0.28-0.236-0.374-0.371-0.093-0.143-0.14-0.308-0.14-0.495 0-0.3 0.109-0.54 0.327-0.72s0.502-0.27 0.852-0.27c0.428 0 0.786 0.094 1.074 0.281v0.495c-0.241-0.308-0.588-0.461-1.039-0.461-0.249 0-0.451 0.060-0.607 0.18s-0.234 0.274-0.234 0.461c0 0.165 0.047 0.311 0.14 0.439 0.093 0.12 0.222 0.233 0.385 0.338 0.171 0.105 0.451 0.263 0.841 0.473 0.397 0.218 0.689 0.443 0.876 0.675 0.187 0.225 0.28 0.521 0.28 0.889 0 0.465-0.16 0.84-0.479 1.126-0.311 0.278-0.693 0.416-1.144 0.416z"></path>
<path d="M60.188 29.408c-0.576 0-1.055-0.169-1.436-0.506-0.374-0.338-0.56-0.803-0.56-1.396v-5.267h0.374v2.037h1.611v0.315h-1.611v2.915c0 0.495 0.152 0.885 0.455 1.171 0.311 0.278 0.7 0.416 1.168 0.416v0.315z"></path>
<path d="M63.482 29.464c-0.739 0-1.312-0.195-1.716-0.585-0.397-0.39-0.595-0.942-0.595-1.655v-2.949h0.374v2.949c0 0.615 0.167 1.092 0.502 1.429 0.342 0.33 0.821 0.495 1.436 0.495 0.374 0 0.716-0.079 1.027-0.236 0.311-0.165 0.557-0.394 0.736-0.687s0.269-0.627 0.269-1.002v-2.949h0.374v5.065h-0.374v-0.945c-0.179 0.315-0.448 0.574-0.806 0.777-0.358 0.195-0.767 0.293-1.226 0.293z"></path>
<path d="M69.836 29.464c-0.506 0-0.973-0.12-1.401-0.36-0.42-0.24-0.755-0.563-1.004-0.968s-0.374-0.848-0.374-1.328c0-0.48 0.125-0.923 0.374-1.328s0.584-0.728 1.004-0.968c0.428-0.24 0.895-0.36 1.401-0.36 0.49 0 0.957 0.128 1.401 0.383 0.443 0.248 0.771 0.574 0.98 0.979v-4.615h0.374v8.441h-0.374v-1.227c-0.234 0.405-0.572 0.732-1.016 0.979-0.436 0.248-0.891 0.371-1.366 0.371zM69.825 29.149c0.428 0 0.825-0.105 1.191-0.315 0.374-0.218 0.669-0.503 0.887-0.855 0.226-0.36 0.339-0.747 0.339-1.159s-0.113-0.799-0.339-1.159c-0.218-0.36-0.513-0.649-0.887-0.867-0.366-0.218-0.763-0.326-1.191-0.326s-0.825 0.109-1.191 0.326c-0.366 0.21-0.658 0.495-0.876 0.855s-0.327 0.747-0.327 1.159c0 0.42 0.105 0.81 0.315 1.171 0.218 0.353 0.51 0.638 0.876 0.855 0.373 0.21 0.774 0.315 1.202 0.315z"></path>
<path d="M74.52 23.116c-0.109 0-0.206-0.038-0.292-0.113-0.078-0.075-0.116-0.169-0.116-0.281 0-0.105 0.039-0.195 0.116-0.27 0.086-0.075 0.183-0.113 0.292-0.113s0.202 0.038 0.281 0.113c0.085 0.075 0.128 0.165 0.128 0.27 0 0.113-0.043 0.206-0.128 0.281-0.078 0.075-0.172 0.113-0.281 0.113zM74.334 24.276h0.374v5.065h-0.374v-5.065z"></path>
<path d="M78.947 29.521c-0.529 0-1.008-0.124-1.436-0.371-0.428-0.255-0.763-0.589-1.004-1.002-0.241-0.42-0.362-0.874-0.362-1.362 0-0.48 0.121-0.927 0.362-1.339 0.249-0.413 0.584-0.739 1.004-0.979 0.428-0.248 0.903-0.371 1.424-0.371 0.513 0 0.98 0.124 1.401 0.371 0.428 0.24 0.763 0.566 1.004 0.979s0.362 0.859 0.362 1.339c0 0.503-0.116 0.964-0.35 1.384-0.234 0.413-0.561 0.743-0.981 0.991-0.413 0.24-0.887 0.36-1.424 0.36zM78.947 29.205c0.444 0 0.848-0.109 1.214-0.326s0.65-0.506 0.852-0.867c0.21-0.368 0.315-0.769 0.315-1.204 0-0.428-0.105-0.825-0.315-1.193s-0.498-0.66-0.864-0.878c-0.366-0.218-0.77-0.326-1.214-0.326s-0.852 0.113-1.226 0.338c-0.366 0.218-0.658 0.51-0.876 0.878-0.21 0.368-0.315 0.765-0.315 1.193s0.106 0.825 0.315 1.193c0.218 0.36 0.51 0.649 0.876 0.867 0.374 0.218 0.786 0.326 1.238 0.326z"></path>
</symbol>
<symbol id="telegram-icon" viewBox="0 0 35 32">
<path d="M32.199 0.282c0 0 3.256-1.385 2.985 1.979-0.091 1.385-0.904 6.233-1.538 11.477l-2.171 15.533c0 0-0.181 2.276-1.809 2.671s-4.070-1.385-4.523-1.781c-0.362-0.297-6.784-4.749-9.045-6.926-0.633-0.594-1.357-1.781 0.090-3.166l9.497-9.894c1.085-1.187 2.171-3.958-2.352-0.594l-12.663 9.399c0 0-1.447 0.989-4.161 0.099l-5.879-1.979c0 0-2.171-1.484 1.538-2.968 9.045-4.65 20.171-9.399 30.030-13.851z"></path>
</symbol>
<symbol id="viber-icon" viewBox="0 0 30 32">
<path d="M14.161 0.005c-2.48 0.031-7.813 0.453-10.795 3.286-2.219 2.276-2.993 5.642-3.084 9.803-0.075 4.146-0.166 11.933 7.082 14.054v3.229c0 0-0.045 1.292 0.779 1.557 1.016 0.333 1.595-0.661 2.56-1.729l1.801-2.109c4.959 0.427 8.758-0.557 9.196-0.703 1.006-0.333 6.675-1.083 7.601-8.871 0.95-8.043-0.463-13.111-3.013-15.403h-0.015c-0.77-0.734-3.863-3.068-10.775-3.094 0 0-0.513-0.036-1.338-0.021v0.001zM14.246 2.266c0.704-0.005 1.132 0.026 1.132 0.026 5.85 0.016 8.642 1.839 9.301 2.453 2.148 1.906 3.255 6.475 2.444 13.19-0.77 6.511-5.367 6.923-6.218 7.204-0.362 0.12-3.708 0.974-7.923 0.693 0 0-3.139 3.922-4.12 4.933-0.155 0.177-0.337 0.229-0.453 0.203-0.166-0.042-0.216-0.255-0.207-0.547l0.030-5.36c-6.147-1.76-5.785-8.402-5.72-11.871 0.075-3.469 0.704-6.308 2.576-8.23 2.52-2.359 7.048-2.677 9.155-2.693h0.002zM14.71 5.734c-0.212-0.005-0.387 0.177-0.387 0.396 0 0.224 0.176 0.401 0.387 0.401 1.937-0.036 3.803 0.724 5.191 2.12 1.403 1.411 2.087 3.307 2.113 5.787 0 0.219 0.171 0.401 0.387 0.401v-0.016c0.212 0 0.387-0.177 0.387-0.396 0.096-2.359-0.749-4.652-2.334-6.35-1.529-1.547-3.466-2.344-5.745-2.344v0.001zM9.619 6.651c-0.271-0.042-0.553 0.016-0.79 0.161h-0.020c-0.523 0.318-1.011 0.719-1.474 1.255-0.353 0.422-0.544 0.849-0.594 1.26-0.030 0.245-0.010 0.49 0.061 0.724l0.025 0.016c0.397 1.208 0.916 2.37 1.549 3.464 0.815 1.536 1.821 2.958 2.988 4.229l0.035 0.052 0.055 0.042 0.035 0.042 0.041 0.036c1.232 1.214 2.606 2.255 4.095 3.109 1.7 0.958 2.731 1.411 3.35 1.599v0.010c0.182 0.057 0.347 0.083 0.513 0.083 0.528-0.042 1.027-0.26 1.419-0.63 0.503-0.469 0.9-0.984 1.198-1.531v-0.010c0.297-0.578 0.196-1.125-0.232-1.495-0.855-0.776-1.786-1.464-2.767-2.057-0.659-0.37-1.328-0.146-1.599 0.229l-0.578 0.755c-0.297 0.375-0.836 0.323-0.836 0.323l-0.015 0.010c-4.019-1.063-5.091-5.277-5.091-5.277s-0.050-0.573 0.322-0.865l0.724-0.604c0.347-0.292 0.588-0.984 0.216-1.667-0.569-1.021-1.232-1.979-1.982-2.865-0.161-0.208-0.392-0.349-0.649-0.401l0.002 0.002zM15.378 7.84c-0.513 0-0.513 0.802 0.005 0.802 1.287 0.021 2.515 0.573 3.41 1.531 0.815 0.932 1.237 2.172 1.157 3.427 0.005 0.219 0.176 0.396 0.387 0.396l0.015 0.021c0.212 0 0.387-0.182 0.387-0.401 0.035-1.589-0.442-2.922-1.378-3.99-0.941-1.068-2.253-1.667-3.929-1.786-0.020 0-0.035 0-0.055 0v0zM16.013 9.996c-0.528-0.016-0.549 0.802-0.025 0.818 1.273 0.068 1.891 0.734 1.972 2.104 0.005 0.219 0.176 0.391 0.383 0.391h0.015c0.216-0.010 0.387-0.203 0.372-0.427-0.091-1.786-1.032-2.792-2.701-2.885-0.005 0-0.010 0-0.015 0v-0.001z"></path>
</symbol>
<symbol id="whatsapp-icon" viewBox="0 0 32 32">
<path d="M1.28 30.72c0.41-1.219 0.795-2.362 1.181-3.505 0.386-1.131 0.73-2.28 1.169-3.393 0.226-0.566 0.154-0.99-0.131-1.52-1.555-2.863-2.018-5.932-1.478-9.125 0.457-2.704 1.615-5.096 3.484-7.128 3.081-3.34 6.927-4.942 11.474-4.754 3.33 0.135 6.274 1.343 8.785 3.529 2.339 2.032 3.864 4.56 4.571 7.564 0.57 2.421 0.505 4.831-0.196 7.216-0.89 3.022-2.594 5.514-5.129 7.411-3.52 2.639-7.467 3.458-11.771 2.627-1.294-0.247-2.529-0.707-3.692-1.331-0.19-0.1-0.35-0.124-0.558-0.053-2.208 0.707-4.422 1.408-6.63 2.109-0.332 0.106-0.671 0.218-1.080 0.353zM5.037 27.026c0.119-0.029 0.172-0.041 0.226-0.059 1.383-0.436 2.766-0.878 4.155-1.302 0.131-0.041 0.309-0.006 0.433 0.053 0.6 0.295 1.175 0.648 1.793 0.907 2.541 1.066 5.158 1.237 7.806 0.507 3.158-0.878 5.58-2.745 7.236-5.567 1.419-2.415 1.905-5.025 1.466-7.77-0.558-3.493-2.362-6.238-5.348-8.188-2.588-1.685-5.437-2.256-8.477-1.779-2.618 0.412-4.856 1.596-6.702 3.493-1.585 1.626-2.647 3.546-3.11 5.755-0.659 3.163-0.172 6.156 1.597 8.883 0.356 0.548 0.344 0.966 0.131 1.526-0.433 1.149-0.795 2.321-1.205 3.541z"></path>
<path d="M23.748 19.757c-0.018 1.137-0.558 2.003-1.65 2.545-1.074 0.53-2.167 0.666-3.289 0.23-1.009-0.395-2.030-0.778-3.004-1.255-1.282-0.63-2.333-1.573-3.294-2.616-1.063-1.155-1.965-2.439-2.707-3.811-0.528-0.972-0.849-2.003-0.736-3.134 0.119-1.202 0.683-2.162 1.632-2.887 0.19-0.141 0.475-0.206 0.718-0.23 0.315-0.024 0.629 0.024 0.944 0.047 0.261 0.024 0.404 0.206 0.493 0.418 0.232 0.566 0.439 1.131 0.659 1.702 0.148 0.383 0.261 0.784 0.439 1.155 0.22 0.46 0.083 0.842-0.202 1.196-0.243 0.3-0.499 0.589-0.778 0.848-0.232 0.218-0.273 0.442-0.119 0.707 0.683 1.208 1.514 2.292 2.612 3.169 0.724 0.577 1.526 1.007 2.357 1.408 0.243 0.118 0.481 0.1 0.671-0.118 0.41-0.465 0.825-0.925 1.229-1.396 0.261-0.3 0.392-0.359 0.742-0.183 1.015 0.507 2.018 1.031 3.027 1.555 0.237 0.13 0.297 0.342 0.255 0.648z"></path>
</symbol>
</defs>
</svg>
