<svg width="22" height="20" viewBox="0 0 22 20" fill="none" xmlns="http://www.w3.org/2000/svg">
<path d="M20.1244 0.176566C20.1244 0.176566 22.1596 -0.689148 21.99 1.4133C21.9334 2.27903 21.4247 5.30902 21.0289 8.58639L19.6722 18.2948C19.6722 18.2948 19.5591 19.717 18.5415 19.9644C17.5239 20.2117 15.9976 19.0987 15.7149 18.8513C15.4887 18.6658 11.475 15.8831 10.0617 14.5227C9.66592 14.1517 9.21366 13.4096 10.1182 12.5439L16.0541 6.36028C16.7325 5.61823 17.4109 3.8868 14.5842 5.98925L6.66972 11.8638C6.66972 11.8638 5.76521 12.4821 4.06927 11.9256L0.394649 10.6888C0.394649 10.6888 -0.962128 9.76131 1.3557 8.83371C7.00894 5.92737 13.9624 2.9592 20.1244 0.176566Z" fill="#839C04"/>
</svg>
