<svg width="28" height="30" viewBox="0 0 28 30" fill="none" xmlns="http://www.w3.org/2000/svg">
<path d="M13.2762 0.00436588C10.951 0.033432 5.95195 0.429106 3.15589 3.08537C1.07604 5.21938 0.349864 8.37446 0.26475 12.2759C0.194124 16.1632 0.109011 23.4635 6.90449 25.4513V28.4788C6.90449 28.4788 6.86194 29.6902 7.6352 29.9387C8.58775 30.2509 9.13012 29.3189 10.0356 28.3175L11.7243 26.3401C16.3738 26.7405 19.935 25.8179 20.3452 25.681C21.2886 25.3687 26.6028 24.6655 27.4711 17.3643C28.3621 9.82402 27.0374 5.07312 24.6461 2.9241H24.6316C23.91 2.23589 21.0098 0.0474962 14.5303 0.0231182C14.5303 0.0231182 14.0495 -0.010636 13.2762 0.00342826V0.00436588ZM13.3559 2.12431C14.016 2.11963 14.4171 2.14869 14.4171 2.14869C19.9015 2.16369 22.5192 3.87297 23.1367 4.44866C25.1504 6.23576 26.1881 10.5188 25.4284 16.8139C24.7068 22.9178 20.3968 23.3041 19.5991 23.5676C19.2595 23.6801 16.123 24.4808 12.1716 24.2174C12.1716 24.2174 9.22881 27.8947 8.30886 28.8417C8.16309 29.0076 7.99286 29.0564 7.8842 29.032C7.72846 28.9926 7.68138 28.7929 7.69044 28.5191L7.7185 23.4945C1.95525 21.8442 2.29479 15.6175 2.35636 12.365C2.42699 9.11236 3.01645 6.45141 4.77123 4.64931C7.13358 2.43748 11.3784 2.13932 13.3541 2.12431H13.3559ZM13.7905 5.37597C13.5922 5.37128 13.4274 5.54192 13.4274 5.74726C13.4274 5.95729 13.5922 6.12325 13.7905 6.12325C15.606 6.08949 17.3562 6.80208 18.6574 8.11099C19.973 9.43397 20.6141 11.2117 20.6385 13.536C20.6385 13.7414 20.7988 13.912 21.0016 13.912V13.897C21.1999 13.897 21.3647 13.7311 21.3647 13.5257C21.4543 11.3139 20.6621 9.16487 19.1762 7.5728C17.7429 6.12231 15.9265 5.37503 13.7905 5.37503V5.37597ZM9.01784 6.23576C8.76341 6.19638 8.49901 6.25076 8.27717 6.38672H8.25816C7.7674 6.68488 7.31014 7.06086 6.87643 7.56342C6.54593 7.9591 6.36665 8.35946 6.31957 8.74482C6.2915 8.97453 6.31051 9.20425 6.37661 9.42365L6.40015 9.43866C6.7723 10.5713 7.25853 11.6608 7.85251 12.6866C8.61672 14.1267 9.55931 15.46 10.654 16.6517L10.6866 16.7005L10.7382 16.7399L10.7708 16.7792L10.8088 16.813C11.9642 17.9513 13.2518 18.9273 14.648 19.728C16.2416 20.6263 17.2086 21.051 17.789 21.2273V21.2367C17.9593 21.2901 18.1141 21.3145 18.2698 21.3145C18.7651 21.2751 19.2323 21.0707 19.6 20.7238C20.0717 20.2841 20.4439 19.8012 20.7227 19.2883V19.2789C21.0007 18.737 20.9065 18.2241 20.5054 17.8772C19.7041 17.1496 18.8312 16.5045 17.9113 15.9485C17.2938 15.6016 16.6663 15.8116 16.4118 16.1632L15.8695 16.8711C15.5915 17.2227 15.0862 17.174 15.0862 17.174L15.0718 17.1834C11.3041 16.1867 10.2991 12.2365 10.2991 12.2365C10.2991 12.2365 10.252 11.6992 10.6006 11.4255L11.2797 10.8591C11.6047 10.5854 11.8311 9.93653 11.4825 9.29614C10.9492 8.33883 10.3271 7.4406 9.6245 6.60987C9.47329 6.41484 9.25688 6.28264 9.01603 6.23388L9.01784 6.23576ZM14.4171 7.34965C13.9363 7.34965 13.9363 8.10161 14.4216 8.10161C15.6286 8.1213 16.7794 8.63887 17.6188 9.5371C18.383 10.411 18.7787 11.5736 18.7036 12.7503C18.7081 12.9557 18.8683 13.1216 19.0666 13.1216L19.0811 13.1413C19.2794 13.1413 19.4442 12.9707 19.4442 12.7653C19.4768 11.2754 19.0295 10.0256 18.1521 9.02423C17.2702 8.02286 16.0397 7.46122 14.4687 7.34965C14.4497 7.34965 14.4361 7.34965 14.4171 7.34965V7.34965ZM15.012 9.37115C14.5167 9.35614 14.4977 10.1231 14.9884 10.1381C16.1818 10.2019 16.7613 10.8263 16.8374 12.1109C16.8419 12.3162 17.0022 12.4775 17.196 12.4775H17.2104C17.4133 12.4681 17.5735 12.2871 17.5591 12.0771C17.4739 10.4025 16.592 9.45928 15.0265 9.37208C15.022 9.37208 15.0174 9.37208 15.012 9.37208V9.37115Z" fill="#839C04"/>
</svg>
