<svg width="24" height="24" viewBox="0 0 24 24" fill="none" xmlns="http://www.w3.org/2000/svg">
<g clip-path="url(#clip0_696_2156)">
<path d="M0.959961 23.04C1.26715 22.1254 1.55653 21.2683 1.8459 20.4111C2.13528 19.5629 2.3935 18.7013 2.72294 17.8663C2.89212 17.4421 2.83869 17.124 2.625 16.7264C1.45858 14.5791 1.11133 12.2773 1.51646 9.88261C1.85926 7.85466 2.72739 6.06088 4.12977 4.5366C6.44034 2.03149 9.32522 0.829747 12.7354 0.971128C15.233 1.07275 17.4412 1.97847 19.3244 3.61762C21.0784 5.1419 22.2226 7.0373 22.7524 9.29057C23.1798 11.1064 23.1308 12.9135 22.6055 14.7028C21.9377 16.9694 20.6599 18.8383 18.759 20.2609C16.1189 22.2403 13.1584 22.8544 9.93069 22.2314C8.96016 22.0459 8.03415 21.7013 7.16156 21.2329C7.0191 21.1578 6.89889 21.1401 6.74307 21.1932C5.08694 21.7233 3.42635 22.2491 1.77022 22.7749C1.52091 22.8544 1.26715 22.9383 0.959961 23.04ZM3.77806 20.2698C3.8671 20.2477 3.90717 20.2388 3.94724 20.2256C4.98455 19.8986 6.02185 19.5673 7.06362 19.2492C7.16156 19.2182 7.29512 19.2447 7.38861 19.2889C7.83826 19.5098 8.2701 19.7749 8.73311 19.9693C10.6386 20.769 12.6019 20.8971 14.5875 20.3493C16.9559 19.691 18.7723 18.2904 20.0144 16.1741C21.0784 14.3626 21.4435 12.4054 21.114 10.3465C20.6956 7.72653 19.3422 5.66766 17.1028 4.20524C15.1618 2.94164 13.0248 2.51308 10.7454 2.87095C8.78208 3.18022 7.10368 4.06828 5.71912 5.49093C4.53044 6.71035 3.73354 8.15068 3.38629 9.8075C2.89212 12.1801 3.25718 14.4245 4.58387 16.4701C4.85099 16.881 4.84208 17.1947 4.68181 17.6144C4.35682 18.476 4.08525 19.3552 3.77806 20.2698Z" fill="#839C04"/>
<path d="M17.8108 14.8177C17.7975 15.6704 17.3923 16.3199 16.5732 16.7263C15.7674 17.124 14.9482 17.2256 14.1068 16.8986C13.3499 16.6026 12.5842 16.3154 11.8541 15.9576C10.8924 15.4848 10.1044 14.7779 9.38323 13.9959C8.58633 13.1299 7.90963 12.1668 7.35313 11.1373C6.9569 10.4083 6.7165 9.63515 6.80108 8.78686C6.89012 7.88555 7.31306 7.16539 8.02538 6.62195C8.16784 6.51591 8.38154 6.46731 8.56407 6.44964C8.80002 6.43197 9.03598 6.46731 9.27193 6.48499C9.46782 6.50266 9.57466 6.63962 9.64144 6.79868C9.81507 7.22282 9.97089 7.64697 10.1356 8.07553C10.2469 8.36271 10.3315 8.66315 10.4651 8.9415C10.6298 9.28612 10.5274 9.5733 10.3137 9.83839C10.1312 10.0637 9.93973 10.2802 9.73048 10.4746C9.55686 10.6381 9.52569 10.806 9.64144 11.0048C10.1534 11.9105 10.7767 12.7235 11.6003 13.3818C12.1435 13.8148 12.7445 14.1373 13.3677 14.4377C13.5503 14.5261 13.7284 14.5128 13.8708 14.3494C14.178 14.0003 14.4896 13.6557 14.7924 13.3022C14.9883 13.0769 15.0862 13.0327 15.3489 13.1653C16.1102 13.5452 16.8625 13.9385 17.6194 14.3317C17.7975 14.4289 17.842 14.5879 17.8108 14.8177Z" fill="#839C04"/>
</g>
<defs>
<clipPath id="clip0_696_2156">
<rect width="24" height="24" fill="white"/>
</clipPath>
</defs>
</svg>
